solid ascii
  facet normal 1.000000e+000 0.000000e+000 0.000000e+000
    outer loop
      vertex   20.000000e+000 20.000000e+000 20.000000e+000
      vertex   20.000000e+000 -20.000000e+000 20.000000e+000
      vertex   20.000000e+000 20.000000e+000 0.000000e+000
    endloop
  endfacet
  facet normal 1.000000e+000 0.000000e+000 0.000000e+000
    outer loop
      vertex   20.000000e+000 20.000000e+000 0.000000e+000
      vertex   20.000000e+000 -20.000000e+000 20.000000e+000
      vertex   20.000000e+000 -20.000000e+000 0.000000e+000
    endloop
  endfacet
  facet normal -7.071068e-001 -7.071068e-001 0.000000e+000
    outer loop
      vertex   20.000000e+000 -20.000000e+000 20.000000e+000
      vertex   -20.000000e+000 20.000000e+000 20.000000e+000
      vertex   20.000000e+000 -20.000000e+000 0.000000e+000
    endloop
  endfacet
  facet normal -7.071068e-001 -7.071068e-001 -0.000000e+000
    outer loop
      vertex   20.000000e+000 -20.000000e+000 0.000000e+000
      vertex   -20.000000e+000 20.000000e+000 20.000000e+000
      vertex   -20.000000e+000 20.000000e+000 0.000000e+000
    endloop
  endfacet
  facet normal -0.000000e+000 1.000000e+000 0.000000e+000
    outer loop
      vertex   -20.000000e+000 20.000000e+000 20.000000e+000
      vertex   20.000000e+000 20.000000e+000 20.000000e+000
      vertex   -20.000000e+000 20.000000e+000 0.000000e+000
    endloop
  endfacet
  facet normal -0.000000e+000 1.000000e+000 0.000000e+000
    outer loop
      vertex   -20.000000e+000 20.000000e+000 0.000000e+000
      vertex   20.000000e+000 20.000000e+000 20.000000e+000
      vertex   20.000000e+000 20.000000e+000 0.000000e+000
    endloop
  endfacet
  facet normal 0.000000e+000 -0.000000e+000 1.000000e+000
    outer loop
      vertex   20.000000e+000 -20.000000e+000 20.000000e+000
      vertex   20.000000e+000 20.000000e+000 20.000000e+000
      vertex   -20.000000e+000 20.000000e+000 20.000000e+000
    endloop
  endfacet
  facet normal 0.000000e+000 0.000000e+000 -1.000000e+000
    outer loop
      vertex   -20.000000e+000 20.000000e+000 0.000000e+000
      vertex   20.000000e+000 20.000000e+000 0.000000e+000
      vertex   20.000000e+000 -20.000000e+000 0.000000e+000
    endloop
  endfacet
endsolid
